<?xml version="1.0" encoding="UTF-8" standalone="no"?>
<svg width="24px" height="24px" viewBox="0 0 24 24" version="1.1" xmlns="http://www.w3.org/2000/svg" xmlns:xlink="http://www.w3.org/1999/xlink" xmlns:sketch="http://www.bohemiancoding.com/sketch/ns">
    <title>beast-24</title>
    <description>Created with Sketch (http://www.bohemiancoding.com/sketch)</description>
    <defs>
        <linearGradient x1="50%" y1="99.9998488%" x2="50%" y2="-0.000302462041%" id="linearGradient-1">
            <stop stop-color="#CBE8F9" offset="0%"></stop>
            <stop stop-color="#9CCAEA" offset="100%"></stop>
        </linearGradient>
    </defs>
    <g id="Page-1" stroke="none" stroke-width="1" fill="none" fill-rule="evenodd" sketch:type="MSPage">
        <g id="beast-24" sketch:type="MSArtboardGroup">
            <g id="Beast-24" sketch:type="MSLayerGroup" transform="translate(1.000000, 0.000000)">
                <path d="M10.2578353,23.6292135 C10.5724239,23.6292135 11.3365279,23.6292135 11.7410762,23.3565718 C12.1455988,23.0839302 11.9658597,22.9476223 14.3030097,22.402313 C16.6401597,21.8570036 17.8436776,20.766463 17.8436776,20.766463 C20.0460039,19.3123046 21,16.9949417 21,16.9949417 C19.2471117,15.4499896 19.3369169,14.086625 19.2471117,13.5413416 C19.1573066,12.9960583 19.0223283,9.22456303 19.0223283,6.54350416 C19.0223283,3.86244529 18.2132831,3.5444198 18.2132831,3.5444198 C15.2917425,0.636233358 10.518412,0 10.518412,0 L10.4815622,0 C10.4815622,0 5.70823174,0.636207305 2.78669114,3.54439375 C2.78669114,3.54439375 1.97767173,3.86244529 1.97767173,6.54347811 C1.97767173,9.22453698 1.84269343,12.9960583 1.75288828,13.5413156 C1.66308313,14.086625 1.75288828,15.4499896 0,16.9949156 C0,16.9949156 0.954021874,19.3122525 3.15632244,20.7664369 C3.15632244,20.7664369 4.35984028,21.8569775 6.69701607,22.4022869 C9.03416608,22.9475963 8.85442694,23.0839041 9.25894953,23.3565458 C9.66347212,23.6291874 10.4276018,23.6291874 10.7421904,23.6291874" id="Shape" fill="#000000" sketch:type="MSShapeGroup"></path>
                <path d="M10.4756254,22.9213483 C12.3169525,22.9213483 11.0594049,22.2865772 13.7090837,21.6064986 C16.3587624,20.9264461 18.963434,19.2035441 18.963434,16.8912564 C18.963434,14.5789946 18.0203442,12.7655038 18.0203442,12.7655038 C17.8856318,10.7705756 17.8856318,9.6824708 17.8856318,9.6824708 L17.8856318,5.60202566 C17.8856318,2.24694042 10.4756254,0.97752809 10.4756254,0.97752809 L10.4576019,0.97752809 C10.4576019,0.97752809 3.04759558,2.24694042 3.04759558,5.60202566 L3.04759558,9.6824708 C3.04759558,9.6824708 3.04759558,10.7705756 2.91288317,12.7655038 C2.91288317,12.7655038 1.96979332,14.5789946 1.96979332,16.8912564 C1.96979332,19.2035181 4.57446494,20.9264201 7.22414369,21.6064986 C9.87382243,22.2865772 8.61627489,22.9213483 10.4575762,22.9213483" id="Shape" fill="#9CCAEA" sketch:type="MSShapeGroup"></path>
                <path d="M19.1522933,11.313774 L20.7606733,10.3146067 C20.7606733,10.3146067 21.2991584,11.8112126 20.7606733,13.3078444 C20.2221625,14.8044502 19.1522933,15.3033708 19.1522933,15.3033708 L18.6963434,11.5844257 L19.1522933,11.313774 L19.1522933,11.313774 Z" id="Shape" fill="#000000" sketch:type="MSShapeGroup"></path>
                <path d="M1.88111363,11.313774 L0.272715689,10.3146067 C0.272715689,10.3146067 -0.265775375,11.8112126 0.272715689,13.3078444 C0.811232482,14.8044502 1.88111363,15.3033708 1.88111363,15.3033708 L2.33704293,11.5844257 L1.88111363,11.313774 L1.88111363,11.313774 Z" id="Shape" fill="#000000" sketch:type="MSShapeGroup"></path>
                <path d="M1.96979332,15.1991328 C1.96979332,15.1991328 2.84061819,16.5611692 3.06982136,16.8789473 C3.2990508,17.1967254 3.06982136,8.69662921 3.06982136,8.69662921 L2.57070926,12.7474152 L1.96979332,15.1991328 L1.96979332,15.1991328 Z" id="Shape" fill="#000000" sketch:type="MSShapeGroup"></path>
                <path d="M10.0181997,20.1413324 L9.61526232,24 L11.5850556,24 L11.0255174,20.1413324 L10.7344928,20.738777 L10.6001461,19.6516854 L10.3405906,20.8293831 L10.0181997,20.1413324 Z" id="Shape" fill="#000000" sketch:type="MSShapeGroup"></path>
                <path d="M8.67329094,10.3118161 C8.67329094,10.926736 8.16822975,11.425311 7.54531002,11.425311 C6.92239028,11.425311 6.41732909,10.926736 6.41732909,10.3118161 C6.41732909,9.69689616 6.92239028,9.574689 7.54531002,9.574689 C8.16822975,9.574689 8.67329094,9.69689616 8.67329094,10.3118161 L8.67329094,10.3118161 Z" id="Shape" stroke="#000000" stroke-width="0.25" fill="#FAED24" sketch:type="MSShapeGroup"></path>
                <path d="M14.0560107,10.4371393 C14.0560107,11.0520592 13.5509495,11.5506342 12.9280298,11.5506342 C12.30511,11.5506342 11.8000488,11.0520592 11.8000488,10.4371393 C11.8000488,9.82221936 12.30511,9.70001221 12.9280298,9.70001221 C13.5509495,9.70001221 14.0560107,9.82221936 14.0560107,10.4371393 L14.0560107,10.4371393 Z" id="Shape" stroke="#000000" stroke-width="0.25" fill="#FAED24" sketch:type="MSShapeGroup"></path>
                <path d="M9.6214221,10.1496965 L9.08108108,11.7729312 C9.08108108,11.7729312 9.08108108,12.505618 10.2630932,12.505618 C11.4451053,12.505618 11.2762391,11.6321075 11.2762391,11.6321075 L10.7794506,8.69662921 L11.0397076,11.5750231 L10.1829069,11.6321075 L10.0284463,9.96911016 L9.6214221,10.1496965 L9.6214221,10.1496965 Z" id="Shape" fill="#000000" sketch:type="MSShapeGroup"></path>
                <path d="M8.09250417,17.2448872 C8.09250417,17.2448872 10.0729252,15.6096042 11.6327865,15.7125275 C13.1926218,15.8154769 13.9381149,16.9244194 13.6670995,17.2448872 C13.3961101,17.5653551 11.988567,17.8055355 10.99684,17.5653551 C10.0051131,17.3252009 10.0051131,17.2565592 9.32691367,17.3938164 C8.64868834,17.5310473 7.97712499,17.7136023 8.09250417,17.2448872 L8.09250417,17.2448872 Z" id="Shape" fill="#000000" sketch:type="MSShapeGroup"></path>
                <path d="M10.1494436,16.6853933 L12.995405,16.6976196 C12.995405,16.6976196 13.2664427,16.8648968 13.1647874,16.8955284 C13.063132,16.92616 12.5888353,17.258427 11.8694003,17.258427 C11.4142692,17.258427 10.7436547,16.9491402 10.5560132,16.8955284 C10.2623393,16.8115743 10.1494436,16.6853933 10.1494436,16.6853933 L10.1494436,16.6853933 Z" id="Shape" fill="#FFFFFF" sketch:type="MSShapeGroup"></path>
                <path d="M9.09274112,3.41840828 C9.52102976,5.20337174 8.35343305,7.02127261 6.4847173,7.47891289 C4.61587288,7.93655317 2.7535906,6.86082296 2.32543063,5.07596348 C1.89701332,3.29100003 3.06458431,1.47309915 4.93342872,1.01545888 C6.8021702,0.557844595 8.66442675,1.63357481 9.09274112,3.41840828 L9.09274112,3.41840828 Z" id="Shape" stroke="#000000" stroke-width="0.75" fill="#57A2BC" sketch:type="MSShapeGroup"></path>
                <path d="M8.64250768,2.98282238 C9.01308695,4.53471906 7.90296806,6.14005473 6.16298518,6.56832341 C4.4229766,6.99672257 2.71200585,6.08593731 2.34158076,4.53404063 C1.97102719,2.98214396 3.08124887,1.37680828 4.82112896,0.948539597 C6.56111184,0.520114351 8.27221107,1.43092571 8.64250768,2.98282238 L8.64250768,2.98282238 Z" id="Shape" stroke="#000000" stroke-width="0.75" fill="#9CCAEA" sketch:type="MSShapeGroup"></path>
                <path id="Shape" stroke="#060606" stroke-width="0.75" sketch:type="MSShapeGroup" d="M5.709062,6.6741573 L6.10969793,7.61797753"></path>
                <path id="Shape" stroke="#060606" stroke-width="0.75" sketch:type="MSShapeGroup" d="M6.17647059,6.50561798 L6.61049285,7.34831461"></path>
                <path id="Shape" fill="#000000" sketch:type="MSShapeGroup" d="M14.3281499,19.3820225 C14.3281499,19.3820225 14.772767,18.6898781 14.6762792,18.1200464 C14.579765,17.5503966 14.2893482,17.494382 14.2893482,17.494382 C14.2893482,17.494382 14.6019601,18.7176127 14.3281499,19.3820225 L14.3281499,19.3820225 Z"></path>
                <path d="M11.4732366,3.41840828 C11.044948,5.20337174 12.2125447,7.02127261 14.0812605,7.47891289 C15.9501049,7.93655317 17.8123872,6.86082296 18.2405472,5.07596348 C18.6689645,3.29100003 17.5013935,1.47309915 15.6325233,1.01545888 C13.7638076,0.557844595 11.9015253,1.63357481 11.4732366,3.41840828 L11.4732366,3.41840828 Z" id="Shape" stroke="#000000" stroke-width="0.75" fill="#57A2BC" sketch:type="MSShapeGroup"></path>
                <path d="M11.9568572,2.98282238 C11.5862794,4.53471906 12.6963682,6.14005473 14.4363699,6.56832341 C16.1763715,6.99672257 17.8873354,6.08593731 18.2577847,4.53404063 C18.6283368,2.98214396 17.5180939,1.37680828 15.7782464,0.948539597 C14.0382448,0.520114351 12.3271267,1.43092571 11.9568572,2.98282238 L11.9568572,2.98282238 Z" id="Shape" stroke="#000000" stroke-width="0.75" fill="#9CCAEA" sketch:type="MSShapeGroup"></path>
                <path id="Shape" stroke="#060606" stroke-width="0.75" sketch:type="MSShapeGroup" d="M14.8903021,6.6741573 L14.4896661,7.61797753"></path>
                <path id="Shape" stroke="#060606" stroke-width="0.75" sketch:type="MSShapeGroup" d="M14.3895072,6.50561798 L13.9554849,7.34831461"></path>
                <path d="M0.653347024,11.2247191 L1.82750478,11.9327366 C1.82750478,11.9327366 1.87178434,13.3945287 1.76104733,13.9199629 C1.65033573,14.4453972 1.51739544,14.6966292 1.51739544,14.6966292 C1.51739544,14.6966292 0.786134895,13.6914916 0.631143734,12.6179672 C0.476127169,11.5444689 0.653347024,11.2247191 0.653347024,11.2247191 L0.653347024,11.2247191 Z" id="Shape" fill="#9CCAEA" sketch:type="MSShapeGroup"></path>
                <path d="M20.4134557,11.0898876 L19.2392596,11.7979051 C19.2392596,11.7979051 19.195005,13.2596972 19.3057178,13.7851315 C19.416456,14.3105919 19.5493978,14.5617978 19.5493978,14.5617978 C19.5493978,14.5617978 20.280641,13.5566602 20.4356338,12.4831357 C20.5906267,11.4096113 20.4134557,11.0898876 20.4134557,11.0898876 L20.4134557,11.0898876 Z" id="Shape" fill="#9CCAEA" sketch:type="MSShapeGroup"></path>
                <path d="M10.0492846,7.88764045 L9.64226556,9.53479247 L4.3736089,8.91712686 C4.3736089,8.91712686 4.3736089,10.0152107 5.01531254,10.1524843 C5.65701618,10.2897317 10.0492846,10.1524843 10.0492846,10.1524843 L10.0492846,7.88764045 L10.0492846,7.88764045 Z" id="Shape" fill="#000000" sketch:type="MSShapeGroup"></path>
                <path d="M10.5834658,8.35955056 L11.3186175,9.75884221 L16.4415193,9.03840295 C16.4415193,9.03840295 16.5772108,10.1531871 16.1022384,10.1949305 C15.627292,10.2366739 11.013104,10.1949305 11.013104,10.1949305 L10.5834658,8.35955056 L10.5834658,8.35955056 Z" id="Shape" fill="#000000" sketch:type="MSShapeGroup"></path>
                <path d="M9.91573927,11.6629213 L11.0508744,11.6163327 L10.9248272,9.95689729 L10.0207216,9.94382022 L9.91573927,11.6629213 Z" id="Shape" fill="url(#linearGradient-1)" sketch:type="MSShapeGroup"></path>
                <path d="M19.1303657,14.4912622 C19.1303657,14.4912622 18.259548,15.853329 18.0303399,16.1710821 C17.8011054,16.4888612 18.0303399,7.98876404 18.0303399,7.98876404 L18.5294629,12.0395629 L19.1303657,14.4912622 L19.1303657,14.4912622 Z" id="Shape" fill="#000000" sketch:type="MSShapeGroup"></path>
            </g>
        </g>
    </g>
</svg>